<?xml version="1.0" standalone="no"?>
<!DOCTYPE svg PUBLIC "-//W3C//DTD SVG 20010904//EN"
 "http://www.w3.org/TR/2001/REC-SVG-20010904/DTD/svg10.dtd">
<svg version="1.0" xmlns="http://www.w3.org/2000/svg"
 width="242.000000pt" height="300.000000pt" viewBox="0 0 242.000000 300.000000"
 preserveAspectRatio="xMidYMid meet">

<g transform="translate(0.000000,300.000000) scale(0.100000,-0.100000)"
fill="#000000" stroke="none">
<path d="M1100 2994 c-169 -22 -320 -67 -455 -137 l-80 -42 323 -3 c177 -1
467 -1 645 0 l322 3 -80 42 c-102 52 -231 98 -337 118 -85 16 -275 27 -338 19z"/>
<path d="M305 2588 c-25 -28 -55 -64 -66 -80 l-20 -28 241 0 c238 0 242 0 283
24 89 52 245 71 352 42 28 -7 73 -25 102 -39 l52 -27 476 0 476 0 -20 28 c-11
16 -41 52 -66 80 l-47 52 -858 0 -858 0 -47 -52z"/>
<path d="M125 2320 c-8 -16 -19 -41 -24 -54 -9 -23 -9 -23 47 8 52 28 65 31
147 31 83 0 95 -2 153 -34 34 -19 63 -32 65 -30 1 2 14 28 28 57 l27 52 -214
0 -213 0 -16 -30z"/>
<path d="M1406 2298 c15 -29 27 -54 28 -55 2 -2 27 10 57 26 30 16 71 32 92
35 54 10 138 -10 189 -44 l43 -30 258 0 258 0 -7 23 c-3 12 -15 39 -25 60
l-19 37 -450 0 -450 0 26 -52z"/>
<path d="M1870 2146 c0 -1 5 -17 11 -34 l11 -31 40 21 c67 35 123 35 192 -1
54 -29 66 -31 157 -31 107 0 109 2 89 54 l-10 26 -245 0 c-135 0 -245 -2 -245
-4z"/>
<path d="M2219 1998 c8 -21 15 -23 95 -26 l86 -3 0 26 0 25 -95 0 c-94 0 -94
0 -86 -22z"/>
<path d="M2 1783 c3 -17 70 -18 1211 -21 1202 -2 1207 -2 1207 18 0 20 -6 20
-1211 20 -1147 0 -1210 -1 -1207 -17z"/>
<path d="M22 1583 c3 -17 27 -18 317 -21 l314 -2 -18 20 c-17 19 -30 20 -317
20 -280 0 -299 -1 -296 -17z"/>
<path d="M40 1501 c0 -4 5 -22 11 -40 l11 -31 362 0 c350 0 364 -1 381 -20 18
-20 31 -20 780 -20 808 0 775 -2 775 41 0 5 -318 9 -793 9 l-793 0 -34 35 -34
35 -333 0 c-183 0 -333 -4 -333 -9z"/>
<path d="M120 1280 l30 -60 417 0 c415 0 416 0 398 20 -18 20 -17 20 656 20
l674 0 17 40 17 40 -1120 0 -1119 0 30 -60z"/>
<path d="M1073 1142 c20 -21 37 -41 37 -45 0 -4 -198 -8 -441 -9 l-441 -3 66
-77 67 -78 449 0 c248 0 450 3 450 7 0 4 -26 33 -57 65 l-57 58 511 0 511 0
35 48 c18 26 37 53 41 60 6 9 -117 12 -600 12 l-608 0 37 -38z"/>
<path d="M1290 922 c0 -4 32 -39 70 -77 l71 -70 -428 -5 -428 -5 58 -32 c257
-141 554 -182 850 -117 l78 17 -60 61 c-34 34 -61 65 -61 69 0 4 94 7 209 7
l210 0 78 59 c43 32 87 68 97 80 l19 21 -381 0 c-210 0 -382 -3 -382 -8z"/>
<path d="M1830 445 c-103 -47 -151 -166 -116 -287 19 -68 46 -102 98 -129 83
-42 203 -32 280 23 27 19 28 22 28 109 l0 90 -97 -3 -98 -3 0 -35 0 -35 53 -3
c48 -3 52 -5 52 -28 0 -52 -105 -82 -170 -49 -78 40 -90 195 -20 258 50 45
143 36 172 -16 12 -21 17 -22 56 -14 38 7 42 11 36 30 -10 33 -35 63 -68 83
-41 24 -160 29 -206 9z"/>
<path d="M300 230 l0 -220 135 0 c154 0 195 11 219 59 9 16 16 49 16 72 0 33
-6 47 -33 74 l-33 33 23 26 c36 42 32 99 -11 142 l-34 34 -141 0 -141 0 0
-220z m250 130 c24 -24 24 -29 4 -58 -13 -19 -24 -22 -90 -22 l-74 0 0 50 0
50 70 0 c57 0 74 -4 90 -20z m14 -179 c25 -27 17 -72 -14 -88 -14 -7 -55 -13
-92 -13 l-68 0 0 60 0 60 78 0 c65 0 82 -3 96 -19z"/>
<path d="M750 230 l0 -220 40 0 40 0 2 168 3 167 33 -130 c58 -230 47 -205 96
-205 l44 0 37 153 c21 83 42 159 46 167 5 8 9 -58 9 -152 l0 -168 40 0 40 0 0
220 0 220 -68 0 -69 0 -38 -147 c-44 -168 -38 -170 -91 35 l-29 112 -67 0 -68
0 0 -220z"/>
<path d="M1270 230 l0 -220 45 0 45 0 0 68 c0 64 2 70 33 100 18 18 36 32 39
32 3 0 32 -45 63 -100 l57 -100 59 0 59 0 -85 130 c-47 72 -85 133 -85 136 0
3 34 43 76 87 l76 82 -57 3 -56 3 -63 -68 c-35 -37 -75 -81 -89 -98 l-26 -30
-1 98 0 97 -45 0 -45 0 0 -220z"/>
</g>
</svg>
